<?xml version="1.0" encoding="UTF-8"?>
<svg xmlns="http://www.w3.org/2000/svg" width="119.024" height="81.856" version="1.1" viewBox="0 0 119.024 81.856">
  <defs>
    <style>
      .cls-1 {
        fill: #f5ce1a;
      }

      .cls-2 {
        fill: #065258;
      }
    </style>
  </defs>
  <!-- Generator: Adobe Illustrator 28.7.1, SVG Export Plug-In . SVG Version: 1.2.0 Build 142)  -->
  <g>
    <g id="Layer_1">
      <path class="cls-2" d="M70.266,4.423h13.272v38.355l14.15-14.243h18.794l-19.073,18.107,20.789,20.943h-19.417l-15.244-16.339v16.339h-13.272V4.423h0Z"/>
      <path class="cls-2" d="M51.202,26.856v40.729h13.619V17.701c-3.916,3.826-8.524,6.946-13.619,9.155Z"/>
      <path class="cls-2" d="M16.962,27.54C7.463,29.329.825,37.388.825,47.783c0,11.816,8.575,20.617,20.183,20.617,4.678,0,8.749-1.549,11.607-4.075v3.259h12.993V28.855c-3.929,1.115-8.406,1.203-12.692,1.203-.211,0-.422-.005-.632-.008v2.658s-5.169-6.924-15.322-5.168ZM23.693,56.49c-5.071,0-8.773-3.635-8.773-8.707s3.702-8.708,8.853-8.708,8.692,3.559,8.692,8.708-3.541,8.707-8.773,8.707h0Z"/>
      <path class="cls-1" d="M54.288,1.266c-4.813,6.365-12.445,10.481-21.041,10.481-1.137,0-2.255-.08-3.354-.22l-3.706,13.464c2.293.406,4.65.63,7.06.63,13.489,0,25.418-6.644,32.719-16.83l-11.678-7.524h0Z"/>
      <path class="cls-2" d="M53.695,79.761v-.286c.215-.126.393-.251.536-.377.025-.199.041-.442.049-.731.016-.592.024-1.67.024-3.232,0-.418-.01-1.069-.03-1.954-.012-.682-.035-1.072-.067-1.169-.02-.061-.051-.104-.091-.128-.085-.057-.39-.102-.913-.134v-.505c.089,0,.183.002.28.006l.84.024c.276.004.619.006,1.029.006.406,0,.724-.004.956-.012.584-.025.966-.037,1.144-.037.67,0,1.186.069,1.549.207s.629.338.797.6.253.555.253.88c0,.349-.096.673-.289.974s-.439.534-.739.7c-.179.101-.576.237-1.193.408.738.089,1.253.207,1.543.353.29.146.523.374.697.685.174.31.262.656.262,1.038,0,.402-.089.766-.268,1.093-.179.326-.409.605-.691.837-.282.231-.606.415-.971.551s-.822.204-1.37.204l-2.045-.037c-.329,0-.759.012-1.29.037h-.002ZM56.002,74.758l.353.006c.276,0,.532-.022.767-.067.235-.045.426-.123.572-.234s.269-.278.368-.5c.099-.221.149-.476.149-.763,0-.293-.057-.541-.17-.746-.114-.205-.262-.351-.445-.439-.183-.087-.456-.13-.822-.13-.264,0-.503.016-.718.049-.024.292-.039.629-.043,1.01l-.012.944v.87h0ZM56.026,79.08c.134.028.385.042.755.042.503,0,.91-.165,1.221-.496.31-.331.466-.804.466-1.421,0-.439-.081-.793-.244-1.065-.162-.272-.377-.464-.645-.575-.268-.112-.637-.167-1.108-.167-.166,0-.323.008-.469.025v2.775l.012.724c0,.02.004.073.012.159h0Z"/>
      <path class="cls-2" d="M66.983,79.305v.456c-.467-.02-.881-.03-1.242-.03-.341,0-.672.01-.992.03l-.055-.067.055-.797c-.146.093-.576.414-1.29.962-.183.04-.357.06-.524.06-.442,0-.788-.13-1.038-.39-.25-.259-.374-.633-.374-1.12,0-.329.056-.599.167-.81.112-.211.232-.366.359-.465.128-.1.326-.196.593-.289.641-.227,1.343-.406,2.106-.536.008-.483-.091-.85-.298-1.102-.211-.251-.532-.377-.962-.377-.175,0-.341.022-.499.067-.069.02-.15.061-.243.122l-.256.614-.414-.091.037-.785c.3-.203.586-.38.858-.53.272-.15.463-.241.572-.274.15-.045.361-.067.633-.067.442,0,.807.064,1.093.191s.497.279.633.454c.136.174.229.361.28.56s.076.45.076.755c0,.13-.01.469-.031,1.016-.012.365-.018.663-.018.895,0,.722.02,1.16.061,1.315.016.073.049.122.097.146.065.033.27.061.615.086h0ZM64.749,76.821c-.345.074-.66.162-.947.265-.286.104-.484.232-.593.384-.11.152-.165.344-.165.575,0,.26.066.46.198.602s.305.213.52.213c.183,0,.366-.053.551-.159.185-.105.33-.239.435-.402v-1.48.002Z"/>
      <path class="cls-2" d="M74.628,79.293v.469c-.552-.028-1.002-.043-1.351-.043-.402,0-.751.015-1.047.043l-.11-.11c.008-.086.034-.436.079-1.053l.03-.999v-.481c0-.71-.027-1.177-.082-1.4s-.167-.403-.338-.539-.398-.204-.682-.204-.519.068-.706.204-.304.273-.353.411c-.028.081-.041.406-.037.974v1.023c0,.296.008.66.025,1.089.004.191.02.317.049.378.02.045.047.077.079.098.049.032.144.063.286.091.049.008.219.025.511.049v.469c-.442-.016-.984-.025-1.625-.025-.743,0-1.319.008-1.729.025v-.469c.317,0,.536-.022.657-.067.057-.02.1-.055.128-.104.04-.077.063-.223.067-.438l.025-.542c.004-.113.006-.298.006-.554v-.797c0-.361-.012-.799-.037-1.315-.012-.26-.029-.407-.052-.441-.022-.034-.058-.06-.107-.076-.077-.029-.306-.049-.688-.061v-.469c.739-.126,1.223-.219,1.455-.28.232-.06.493-.158.785-.292l.164.073v.98l1.108-.889c.134-.053.246-.088.338-.106s.218-.027.38-.027c.434,0,.76.049.977.146.217.097.401.234.551.411.15.176.256.361.316.554.061.192.092.494.092.904,0,.463-.004.757-.012.882-.004.049-.006.108-.006.177l.006.627c.004.686.015,1.11.033,1.272s.055.266.11.313c.055.046.175.076.362.088.069.004.183.014.341.03h.002Z"/>
      <path class="cls-2" d="M82.371,79.274v.487c-.171-.012-.526-.018-1.065-.018-.564,0-.917.006-1.059.018-.211-.357-.64-.904-1.287-1.641-.647-.736-1.014-1.137-1.099-1.202-.028-.024-.073-.039-.134-.043v.597c0,.296.012.696.037,1.199.012.227.028.365.049.414.012.033.034.059.067.079.045.033.122.057.231.073.049.008.239.02.572.037v.487c-.495-.028-1.037-.043-1.625-.043-.629,0-1.214.015-1.753.043v-.487c.357-.016.567-.031.63-.045.063-.014.111-.037.143-.067.033-.03.055-.07.067-.118.033-.122.053-.453.061-.992.016-.734.024-1.367.024-1.899v-1.972c0-.653-.016-1.246-.049-1.777-.012-.272-.03-.432-.055-.481-.016-.029-.039-.051-.067-.067-.049-.028-.124-.051-.225-.067-.069-.013-.246-.025-.53-.037v-.451c.572-.069.987-.132,1.245-.189s.628-.162,1.111-.317l.134.073-.043,1.321c-.016.731-.024,1.465-.024,2.203v2.216c.13-.098.28-.223.45-.378.357-.324.653-.6.889-.828.085-.089.235-.239.451-.451.215-.211.396-.402.542-.572v-.341c.365.008.735.01,1.108.006.162,0,.434-.002.816-.006v.475l-.639.042c-.069.008-.136.029-.201.061-.122.061-.311.193-.566.396-.357.284-.572.46-.645.529s-.13.122-.171.159l-.517.451c.357.422.962,1.116,1.814,2.081.479.548.793.865.943.95.085.049.209.079.371.091h-.001Z"/>
      <path class="cls-2" d="M86.954,71.246v.536c-.41.012-.653.028-.731.046-.077.018-.132.04-.164.067s-.055.06-.067.101c-.028.069-.049.201-.061.395-.008.106-.014.305-.018.597-.016.998-.024,1.536-.024,1.613v2.453l.018,1.114c0,.418.02.69.061.816.016.057.044.101.082.131s.099.055.183.073.324.031.722.04v.536c-.662-.025-1.368-.037-2.118-.037-.653,0-1.236.012-1.747.037v-.536c.422-.016.666-.03.731-.043.085-.016.143-.039.173-.067.031-.029.05-.061.058-.098.012-.049.028-.239.049-.572.033-.487.049-.938.049-1.351v-2.544c0-.808-.004-1.327-.012-1.558-.021-.515-.045-.838-.073-.968-.012-.053-.031-.093-.058-.122s-.075-.052-.146-.07-.328-.035-.77-.052v-.536c.511.025,1.098.037,1.759.037.743,0,1.445-.012,2.106-.037h-.002Z"/>
      <path class="cls-2" d="M88.001,77.844h.487c.02.455.041.741.061.858.183.223.383.389.603.496.219.108.471.162.755.162.381,0,.674-.091.877-.274.203-.183.304-.404.304-.663,0-.171-.033-.311-.1-.423s-.202-.214-.405-.307c-.158-.057-.462-.134-.91-.232-.448-.098-.788-.205-1.02-.323-.231-.117-.412-.293-.542-.526-.13-.234-.195-.506-.195-.819,0-.56.211-1.026.633-1.397.422-.371,1.029-.557,1.82-.557.329,0,.631.029.907.086s.525.142.749.256l.018.061c-.024.142-.043.286-.055.432s-.031.491-.055,1.035l-.469-.006c-.004-.045-.01-.12-.018-.225-.012-.183-.037-.359-.073-.53-.126-.162-.281-.284-.465-.365-.185-.081-.401-.122-.648-.122-.345,0-.612.077-.8.231-.189.154-.283.339-.283.554,0,.22.043.382.128.487.085.106.211.185.378.237.166.053.474.121.922.204s.75.153.904.21c.223.085.402.193.536.323s.237.291.307.484c.071.192.107.405.107.636,0,.605-.234,1.114-.703,1.528s-1.127.621-1.975.621c-.284,0-.56-.026-.828-.076-.268-.051-.595-.143-.98-.277l-.067-.092c.033-.312.053-.534.061-.663l.037-1.023h-.003Z"/>
      <path class="cls-2" d="M96.669,79.274v.487c-.507-.032-1.037-.049-1.589-.049s-1.173.016-1.863.049v-.481c.385-.012.619-.028.7-.049.061-.016.107-.04.137-.07s.052-.078.064-.143c.028-.122.049-.505.061-1.15.012-.645.018-1.217.018-1.716v-2.009c0-.637-.014-1.219-.043-1.747-.016-.284-.037-.453-.061-.505-.016-.028-.039-.051-.067-.067-.049-.032-.126-.057-.231-.073-.061-.008-.244-.018-.548-.031v-.45c.503-.053.905-.111,1.205-.174s.704-.174,1.211-.332l.128.073-.049,1.23c-.02.69-.033,1.536-.037,2.538v1.558c0,.588.004,1.028.012,1.321.016.726.028,1.166.037,1.318.008.152.022.248.043.289.012.029.032.053.061.073.037.029.099.051.189.067.037.008.244.022.621.042h0Z"/>
      <path class="cls-2" d="M102.981,79.305v.456c-.466-.02-.88-.03-1.242-.03-.341,0-.672.01-.992.03l-.055-.067.055-.797c-.146.093-.576.414-1.291.962-.183.04-.357.06-.523.06-.443,0-.789-.13-1.038-.39-.25-.259-.374-.633-.374-1.12,0-.329.056-.599.167-.81.112-.211.232-.366.359-.465.128-.1.326-.196.593-.289.641-.227,1.343-.406,2.106-.536.008-.483-.091-.85-.298-1.102-.211-.251-.532-.377-.962-.377-.175,0-.341.022-.499.067-.069.02-.15.061-.244.122l-.256.614-.414-.091.037-.785c.3-.203.586-.38.858-.53s.463-.241.572-.274c.15-.045.361-.067.633-.067.442,0,.806.064,1.093.191.286.128.497.279.633.454.136.174.229.361.28.56s.076.45.076.755c0,.13-.01.469-.031,1.016-.012.365-.018.663-.018.895,0,.722.02,1.16.061,1.315.016.073.049.122.098.146.065.033.27.061.614.086h.002ZM100.747,76.821c-.345.074-.661.162-.947.265-.286.104-.484.232-.593.384-.11.152-.164.344-.164.575,0,.26.066.46.198.602.132.142.306.213.52.213.183,0,.366-.053.551-.159.185-.105.33-.239.435-.402v-1.48.002Z"/>
      <path class="cls-2" d="M103.645,79.761v-.469c.317,0,.536-.022.657-.067.057-.02.1-.055.128-.104.041-.077.063-.223.067-.438l.024-.542c.004-.113.006-.298.006-.554v-.797c0-.361-.012-.799-.037-1.315-.012-.26-.029-.407-.052-.441s-.058-.06-.106-.076c-.077-.029-.307-.049-.688-.061v-.469c.738-.126,1.223-.219,1.454-.28.232-.06.493-.158.785-.292l.164.073v.98l1.108-.889c.13-.053.24-.088.332-.106.092-.018.214-.027.369-.027.487,0,.855.078,1.105.234s.455.419.618.788l1.108-.889c.13-.053.24-.088.332-.106s.214-.027.368-.027c.402,0,.713.05.935.149.221.099.405.234.551.405s.25.353.311.548c.06.195.091.495.091.901,0,.446-.004.743-.013.889-.004.049-.006.107-.006.176v.633c0,.649.011,1.064.033,1.245s.061.294.116.341c.055.046.175.076.362.088.065.004.178.014.341.03v.469c-.556-.032-1.015-.049-1.376-.049-.41,0-.759.016-1.047.049l-.085-.116.073-1.101c.016-.446.025-.83.025-1.15v-.463c0-.722-.033-1.178-.098-1.367-.065-.189-.174-.337-.326-.444-.152-.107-.344-.161-.575-.161-.26,0-.481.066-.663.198s-.295.252-.338.359c-.042.107-.062.323-.057.648v1.473l.012.609.012.493c.004.15.018.254.043.31.025.057.059.1.103.128.037.021.114.039.232.055.231.028.397.049.499.06v.469c-.361-.016-.881-.025-1.558-.025-.755,0-1.313.008-1.674.025v-.469c.077-.012.177-.024.298-.037.178-.012.291-.033.338-.064.046-.031.084-.091.113-.183.028-.092.043-.304.043-.636l.012-1.077v-.865c0-.414-.026-.707-.076-.879s-.154-.317-.31-.432c-.156-.116-.358-.174-.606-.174-.272,0-.501.069-.688.207-.187.138-.304.276-.353.414-.024.077-.034.396-.03.956v1.065c0,.548.012.968.037,1.26.008.154.028.252.061.292.032.041.087.071.164.092.057.016.246.037.566.06v.469c-.438-.016-.966-.025-1.582-.025-.694,0-1.244.008-1.65.025h-.002Z"/>
      <path class="cls-2" d="M114.772,79.761v-.451c.455-.032.714-.068.779-.106.065-.039.106-.111.122-.216.041-.223.061-.797.061-1.723,0-1.27-.018-1.993-.055-2.167-.016-.081-.042-.134-.079-.158-.081-.053-.357-.081-.828-.086v-.463c.613-.065,1.075-.134,1.388-.207.312-.073.653-.184,1.022-.334l.147.079c-.049.633-.073,1.228-.073,1.784v2.07c0,.706.016,1.124.049,1.254.016.073.049.122.098.146.11.053.375.088.797.104v.475c-.576-.016-1.204-.025-1.881-.025-.584,0-1.1.008-1.546.025h-.001ZM116.44,70.947c.26,0,.48.091.661.274s.271.402.271.658c0,.26-.09.481-.271.663s-.401.274-.661.274c-.256,0-.475-.091-.657-.274s-.274-.404-.274-.663c0-.256.09-.475.271-.658s.401-.274.66-.274Z"/>
    </g>
  </g>
</svg>